<mxfile host="app.diagrams.net" modified="2020-12-02T01:55:02.415Z" agent="5.0 (Macintosh; Intel Mac OS X 10_15_4) AppleWebKit/537.36 (KHTML, like Gecko) Chrome/87.0.4280.67 Safari/537.36" etag="zTZ7P47ad76fbUzX_BMs" version="13.10.4" type="github">
  <diagram id="42WWrblyjfMENvQk-2MK" name="Page-1">
    <mxGraphModel dx="925" dy="642" grid="1" gridSize="10" guides="1" tooltips="1" connect="1" arrows="1" fold="1" page="1" pageScale="1" pageWidth="1500" pageHeight="2000" math="0" shadow="0">
      <root>
        <mxCell id="0" />
        <mxCell id="1" parent="0" />
        <mxCell id="878t6Z_7mpMtQr6r-hFt-4" style="edgeStyle=orthogonalEdgeStyle;rounded=0;orthogonalLoop=1;jettySize=auto;html=1;exitX=0.5;exitY=1;exitDx=0;exitDy=0;" edge="1" parent="1" source="878t6Z_7mpMtQr6r-hFt-1" target="878t6Z_7mpMtQr6r-hFt-3">
          <mxGeometry relative="1" as="geometry" />
        </mxCell>
        <mxCell id="878t6Z_7mpMtQr6r-hFt-1" value="Start" style="rounded=1;whiteSpace=wrap;html=1;arcSize=50;" vertex="1" parent="1">
          <mxGeometry x="1280" y="120" width="120" height="60" as="geometry" />
        </mxCell>
        <mxCell id="878t6Z_7mpMtQr6r-hFt-2" value="&lt;b&gt;InstructionsIntent&lt;/b&gt;" style="text;html=1;align=center;verticalAlign=middle;resizable=0;points=[];autosize=1;" vertex="1" parent="1">
          <mxGeometry x="1280" y="80" width="120" height="20" as="geometry" />
        </mxCell>
        <mxCell id="878t6Z_7mpMtQr6r-hFt-6" style="edgeStyle=orthogonalEdgeStyle;rounded=0;orthogonalLoop=1;jettySize=auto;html=1;" edge="1" parent="1" source="878t6Z_7mpMtQr6r-hFt-3" target="878t6Z_7mpMtQr6r-hFt-5">
          <mxGeometry relative="1" as="geometry" />
        </mxCell>
        <mxCell id="878t6Z_7mpMtQr6r-hFt-3" value="Ingredients sent" style="shape=document;whiteSpace=wrap;html=1;boundedLbl=1;" vertex="1" parent="1">
          <mxGeometry x="1280" y="240" width="120" height="80" as="geometry" />
        </mxCell>
        <mxCell id="878t6Z_7mpMtQr6r-hFt-8" style="edgeStyle=orthogonalEdgeStyle;rounded=0;orthogonalLoop=1;jettySize=auto;html=1;exitX=0.5;exitY=1;exitDx=0;exitDy=0;" edge="1" parent="1" source="878t6Z_7mpMtQr6r-hFt-5" target="878t6Z_7mpMtQr6r-hFt-7">
          <mxGeometry relative="1" as="geometry" />
        </mxCell>
        <mxCell id="878t6Z_7mpMtQr6r-hFt-5" value="Give recipe step" style="rounded=0;whiteSpace=wrap;html=1;" vertex="1" parent="1">
          <mxGeometry x="1280" y="380" width="120" height="60" as="geometry" />
        </mxCell>
        <mxCell id="878t6Z_7mpMtQr6r-hFt-12" style="edgeStyle=orthogonalEdgeStyle;rounded=0;orthogonalLoop=1;jettySize=auto;html=1;exitX=0.5;exitY=1;exitDx=0;exitDy=0;" edge="1" parent="1" source="878t6Z_7mpMtQr6r-hFt-7" target="878t6Z_7mpMtQr6r-hFt-11">
          <mxGeometry relative="1" as="geometry" />
        </mxCell>
        <mxCell id="878t6Z_7mpMtQr6r-hFt-7" value="Last step &lt;br&gt;of recipe?" style="rhombus;whiteSpace=wrap;html=1;" vertex="1" parent="1">
          <mxGeometry x="1280" y="500" width="120" height="80" as="geometry" />
        </mxCell>
        <mxCell id="878t6Z_7mpMtQr6r-hFt-9" value="Prompt User to save recipe" style="rounded=0;whiteSpace=wrap;html=1;" vertex="1" parent="1">
          <mxGeometry x="1050" y="650" width="120" height="60" as="geometry" />
        </mxCell>
        <mxCell id="878t6Z_7mpMtQr6r-hFt-10" value="Save recipe?" style="rhombus;whiteSpace=wrap;html=1;" vertex="1" parent="1">
          <mxGeometry x="1000" y="760" width="120" height="80" as="geometry" />
        </mxCell>
        <mxCell id="878t6Z_7mpMtQr6r-hFt-11" value="Enjoy meal&amp;nbsp;" style="shape=document;whiteSpace=wrap;html=1;boundedLbl=1;" vertex="1" parent="1">
          <mxGeometry x="1280" y="640" width="120" height="80" as="geometry" />
        </mxCell>
      </root>
    </mxGraphModel>
  </diagram>
</mxfile>
